<?xml version="1.0" encoding="UTF-8" standalone="no"?>
<!-- Created with Inkscape (http://www.inkscape.org/) -->

<svg
   xmlns:dc="http://purl.org/dc/elements/1.1/"
   xmlns:cc="http://creativecommons.org/ns#"
   xmlns:rdf="http://www.w3.org/1999/02/22-rdf-syntax-ns#"
   xmlns:svg="http://www.w3.org/2000/svg"
   xmlns="http://www.w3.org/2000/svg"
   xmlns:sodipodi="http://sodipodi.sourceforge.net/DTD/sodipodi-0.dtd"
   xmlns:inkscape="http://www.inkscape.org/namespaces/inkscape"
   width="763.0661"
   height="468.64258"
   id="svg2"
   version="1.1"
   inkscape:version="0.48.3.1 r9886"
   sodipodi:docname="quiz.svg">
  <defs
     id="defs4">
    <marker
       inkscape:stockid="Arrow1Lend"
       orient="auto"
       refY="0"
       refX="0"
       id="Arrow1Lend"
       style="overflow:visible">
      <path
         id="path3887"
         d="M 0,0 5,-5 -12.5,0 5,5 0,0 z"
         style="fill-rule:evenodd;stroke:#000000;stroke-width:1pt;marker-start:none"
         transform="matrix(-0.8,0,0,-0.8,-10,0)"
         inkscape:connector-curvature="0" />
    </marker>
    <marker
       inkscape:stockid="Arrow1Lstart"
       orient="auto"
       refY="0"
       refX="0"
       id="Arrow1Lstart"
       style="overflow:visible">
      <path
         id="path3884"
         d="M 0,0 5,-5 -12.5,0 5,5 0,0 z"
         style="fill-rule:evenodd;stroke:#000000;stroke-width:1pt;marker-start:none"
         transform="matrix(0.8,0,0,0.8,10,0)"
         inkscape:connector-curvature="0" />
    </marker>
    <marker
       inkscape:stockid="Arrow1Mstart"
       orient="auto"
       refY="0"
       refX="0"
       id="Arrow1Mstart"
       style="overflow:visible">
      <path
         id="path3890"
         d="M 0,0 5,-5 -12.5,0 5,5 0,0 z"
         style="fill-rule:evenodd;stroke:#000000;stroke-width:1pt;marker-start:none"
         transform="matrix(0.4,0,0,0.4,4,0)"
         inkscape:connector-curvature="0" />
    </marker>
    <marker
       inkscape:stockid="Arrow1Lstart"
       orient="auto"
       refY="0"
       refX="0"
       id="Arrow1Lstart-0"
       style="overflow:visible">
      <path
         id="path3884-8"
         d="M 0,0 5,-5 -12.5,0 5,5 0,0 z"
         style="fill-rule:evenodd;stroke:#000000;stroke-width:1pt;marker-start:none"
         transform="matrix(0.8,0,0,0.8,10,0)"
         inkscape:connector-curvature="0" />
    </marker>
    <marker
       inkscape:stockid="Arrow1Lend"
       orient="auto"
       refY="0"
       refX="0"
       id="Arrow1Lend-4"
       style="overflow:visible">
      <path
         id="path3887-3"
         d="M 0,0 5,-5 -12.5,0 5,5 0,0 z"
         style="fill-rule:evenodd;stroke:#000000;stroke-width:1pt;marker-start:none"
         transform="matrix(-0.8,0,0,-0.8,-10,0)"
         inkscape:connector-curvature="0" />
    </marker>
  </defs>
  <sodipodi:namedview
     id="base"
     pagecolor="#ffffff"
     bordercolor="#666666"
     borderopacity="1.0"
     inkscape:pageopacity="0.0"
     inkscape:pageshadow="2"
     inkscape:zoom="7.9195959"
     inkscape:cx="625.94562"
     inkscape:cy="213.83363"
     inkscape:document-units="px"
     inkscape:current-layer="layer1"
     showgrid="true"
     inkscape:window-width="2449"
     inkscape:window-height="1580"
     inkscape:window-x="109"
     inkscape:window-y="-3"
     inkscape:window-maximized="1"
     fit-margin-top="0"
     fit-margin-left="0"
     fit-margin-right="0"
     fit-margin-bottom="0">
    <inkscape:grid
       type="xygrid"
       id="grid2985"
       empspacing="5"
       visible="true"
       enabled="true"
       snapvisiblegridlinesonly="true"
       originx="2.0556641px"
       originy="0.84961324px" />
  </sodipodi:namedview>
  <metadata
     id="metadata7">
    <rdf:RDF>
      <cc:Work
         rdf:about="">
        <dc:format>image/svg+xml</dc:format>
        <dc:type
           rdf:resource="http://purl.org/dc/dcmitype/StillImage" />
        <dc:title />
      </cc:Work>
    </rdf:RDF>
  </metadata>
  <g
     inkscape:label="Layer 1"
     inkscape:groupmode="layer"
     id="layer1"
     transform="translate(44.111328,-620.41882)">
    <path
       sodipodi:type="arc"
       style="fill:#000000;fill-opacity:1;stroke:none"
       id="path2987"
       sodipodi:cx="2.5"
       sodipodi:cy="654.86218"
       sodipodi:rx="2.5"
       sodipodi:ry="2.5"
       d="m 5,654.86218 c 0,1.38071 -1.1192881,2.5 -2.5,2.5 -1.3807119,0 -2.5,-1.11929 -2.5,-2.5 0,-1.38071 1.1192881,-2.5 2.5,-2.5 1.3807119,0 2.5,1.11929 2.5,2.5 z"
       transform="matrix(1.2,0,0,1.1999994,-5.055664,-132.62243)" />
    <path
       sodipodi:type="arc"
       style="fill:#000000;fill-opacity:1;stroke:none"
       id="path2987-7"
       sodipodi:cx="2.5"
       sodipodi:cy="654.86218"
       sodipodi:rx="2.5"
       sodipodi:ry="2.5"
       d="m 5,654.86218 c 0,1.38071 -1.1192881,2.5 -2.5,2.5 -1.3807119,0 -2.5,-1.11929 -2.5,-2.5 0,-1.38071 1.1192881,-2.5 2.5,-2.5 1.3807119,0 2.5,1.11929 2.5,2.5 z"
       transform="matrix(1.2,0,0,1.1999994,294.94434,-132.62243)" />
    <path
       sodipodi:type="arc"
       style="fill:#000000;fill-opacity:1;stroke:none"
       id="path2987-8"
       sodipodi:cx="2.5"
       sodipodi:cy="654.86218"
       sodipodi:rx="2.5"
       sodipodi:ry="2.5"
       d="m 5,654.86218 c 0,1.38071 -1.1192881,2.5 -2.5,2.5 -1.3807119,0 -2.5,-1.11929 -2.5,-2.5 0,-1.38071 1.1192881,-2.5 2.5,-2.5 1.3807119,0 2.5,1.11929 2.5,2.5 z"
       transform="matrix(0.8,0,0,0.8,297.94434,529.32205)" />
    <path
       sodipodi:type="arc"
       style="fill:#000000;fill-opacity:1;stroke:none"
       id="path2987-8-4"
       sodipodi:cx="2.5"
       sodipodi:cy="654.86218"
       sodipodi:rx="2.5"
       sodipodi:ry="2.5"
       d="m 5,654.86218 c 0,1.38071 -1.1192881,2.5 -2.5,2.5 -1.3807119,0 -2.5,-1.11929 -2.5,-2.5 0,-1.38071 1.1192881,-2.5 2.5,-2.5 1.3807119,0 2.5,1.11929 2.5,2.5 z"
       transform="matrix(0.8,0,0,0.8,294.94434,529.32205)" />
    <path
       style="fill:none;stroke:#000000;stroke-width:1;stroke-linecap:butt;stroke-linejoin:miter;stroke-miterlimit:4;stroke-opacity:1;stroke-dasharray:1, 2;stroke-dashoffset:0"
       d="m 297.94434,1058.2118 0,-415.00001"
       id="path3811"
       inkscape:connector-curvature="0" />
    <path
       style="fill:none;stroke:#000000;stroke-width:1;stroke-linecap:butt;stroke-linejoin:miter;stroke-miterlimit:4;stroke-opacity:1;stroke-dasharray:1,2;stroke-dashoffset:0"
       d="m 302.94434,1053.2118 -315.000004,0"
       id="path3813"
       inkscape:connector-curvature="0" />
    <path
       sodipodi:type="arc"
       style="fill:#000000;fill-opacity:1;stroke:none"
       id="path2987-8-1"
       sodipodi:cx="2.5"
       sodipodi:cy="654.86218"
       sodipodi:rx="2.5"
       sodipodi:ry="2.5"
       d="m 5,654.86218 c 0,1.38071 -1.1192881,2.5 -2.5,2.5 -1.3807119,0 -2.5,-1.11929 -2.5,-2.5 0,-1.38071 1.1192881,-2.5 2.5,-2.5 1.3807119,0 2.5,1.11929 2.5,2.5 z"
       transform="matrix(1.2,0,0,1.1999987,-5.055664,267.37805)" />
    <text
       xml:space="preserve"
       style="font-size:30px;font-style:normal;font-weight:normal;line-height:125%;letter-spacing:0px;word-spacing:0px;fill:#000000;fill-opacity:1;stroke:none;font-family:Bitstream Vera Sans"
       x="-47.055664"
       y="1088.2118"
       id="text3841"
       sodipodi:linespacing="125%"><tspan
         sodipodi:role="line"
         id="tspan3843"
         x="-47.055664"
         y="1088.2118">Point B</tspan></text>
    <text
       xml:space="preserve"
       style="font-size:30px;font-style:normal;font-weight:normal;line-height:125%;letter-spacing:0px;word-spacing:0px;fill:#000000;fill-opacity:1;stroke:none;font-family:Bitstream Vera Sans"
       x="-39.805664"
       y="643.56891"
       id="text3841-9"
       sodipodi:linespacing="125%"><tspan
         sodipodi:role="line"
         x="-39.805664"
         y="643.56891"
         id="tspan3866">Point C</tspan></text>
    <text
       xml:space="preserve"
       style="font-size:30px;font-style:normal;font-weight:normal;line-height:125%;letter-spacing:0px;word-spacing:0px;fill:#000000;fill-opacity:1;stroke:none;font-family:Bitstream Vera Sans"
       x="242.94434"
       y="643.21179"
       id="text3841-6"
       sodipodi:linespacing="125%"><tspan
         sodipodi:role="line"
         id="tspan3843-3"
         x="242.94434"
         y="643.21179">Point A</tspan></text>
    <path
       style="fill:none;stroke:#000000;stroke-width:1px;stroke-linecap:butt;stroke-linejoin:miter;stroke-opacity:1;marker-start:url(#Arrow1Lstart);marker-end:url(#Arrow1Lend)"
       d="m 317.94434,1053.2118 0,-400.00001"
       id="path3879"
       inkscape:connector-curvature="0" />
    <path
       style="fill:none;stroke:#000000;stroke-width:1px;stroke-linecap:butt;stroke-linejoin:miter;stroke-opacity:1;marker-start:url(#Arrow1Lstart);marker-end:url(#Arrow1Lend)"
       d="m -2.055664,673.21179 300.000004,0"
       id="path4701"
       inkscape:connector-curvature="0" />
    <text
       xml:space="preserve"
       style="font-size:30px;font-style:normal;font-weight:normal;line-height:125%;letter-spacing:0px;word-spacing:0px;fill:#000000;fill-opacity:1;stroke:none;font-family:Bitstream Vera Sans"
       x="107.94434"
       y="703.21179"
       id="text5075"
       sodipodi:linespacing="125%"><tspan
         sodipodi:role="line"
         id="tspan5077"
         x="107.94434"
         y="703.21179">300位</tspan></text>
    <text
       xml:space="preserve"
       style="font-size:30px;font-style:normal;font-weight:normal;line-height:125%;letter-spacing:0px;word-spacing:0px;fill:#000000;fill-opacity:1;stroke:none;font-family:Bitstream Vera Sans"
       x="-873.21179"
       y="357.94434"
       id="text5075-2"
       sodipodi:linespacing="125%"
       transform="matrix(0,-1,1,0,0,0)"><tspan
         sodipodi:role="line"
         id="tspan5077-7"
         x="-873.21179"
         y="357.94434">400位</tspan></text>
    <path
       sodipodi:type="arc"
       style="fill:none;stroke:#ff0000;stroke-width:1;stroke-miterlimit:4;stroke-opacity:1;stroke-dasharray:2, 1;stroke-dashoffset:0"
       id="path5100"
       sodipodi:cx="320"
       sodipodi:cy="1052.3622"
       sodipodi:rx="60"
       sodipodi:ry="40"
       d="m 380,1052.3622 c 0,22.0914 -26.86292,40 -60,40 -33.13708,0 -60,-17.9086 -60,-40 0,-22.0914 26.86292,-40 60,-40 33.13708,0 60,17.9086 60,40 z"
       transform="matrix(0.70833333,0,0,0.625,73.777671,395.48543)" />
    <path
       style="fill:none;stroke:#ff0000;stroke-width:1;stroke-linecap:butt;stroke-linejoin:miter;stroke-miterlimit:4;stroke-opacity:1;stroke-dasharray:2, 1;stroke-dashoffset:0;marker-end:url(#Arrow1Lend)"
       d="m 337.94434,1033.2118 150,-140.00001"
       id="path5102"
       inkscape:connector-curvature="0" />
    <path
       sodipodi:type="arc"
       style="fill:#000000;fill-opacity:1;stroke:none"
       id="path5292"
       sodipodi:cx="505"
       sodipodi:cy="852.36218"
       sodipodi:rx="15"
       sodipodi:ry="15"
       d="m 520,852.36218 c 0,8.28427 -6.71573,15 -15,15 -8.28427,0 -15,-6.71573 -15,-15 0,-8.28427 6.71573,-15 15,-15 8.28427,0 15,6.71573 15,15 z"
       transform="translate(42.944336,-19.150392)" />
    <path
       sodipodi:type="arc"
       style="fill:#000000;fill-opacity:1;stroke:none"
       id="path5292-0"
       sodipodi:cx="505"
       sodipodi:cy="852.36218"
       sodipodi:rx="15"
       sodipodi:ry="15"
       d="m 520,852.36218 c 0,8.28427 -6.71573,15 -15,15 -8.28427,0 -15,-6.71573 -15,-15 0,-8.28427 6.71573,-15 15,-15 8.28427,0 15,6.71573 15,15 z"
       transform="translate(142.94434,-19.150392)" />
    <path
       style="fill:none;stroke:#000000;stroke-width:1;stroke-linecap:butt;stroke-linejoin:miter;stroke-miterlimit:4;stroke-opacity:1;stroke-dasharray:none;marker-start:url(#Arrow1Lstart);marker-mid:none;marker-end:url(#Arrow1Lend)"
       d="m 547.94434,803.21179 50,0"
       id="path5312"
       inkscape:connector-curvature="0" />
    <path
       sodipodi:type="arc"
       style="fill:none;stroke:#ff0000;stroke-width:1;stroke-miterlimit:4;stroke-opacity:1;stroke-dasharray:2, 1;stroke-dashoffset:0"
       id="path5100-1"
       sodipodi:cx="320"
       sodipodi:cy="1052.3622"
       sodipodi:rx="60"
       sodipodi:ry="40"
       d="m 380,1052.3622 c 0,22.0914 -26.86292,40 -60,40 -33.13708,0 -60,-17.9086 -60,-40 0,-22.0914 26.86292,-40 60,-40 33.13708,0 60,17.9086 60,40 z"
       transform="matrix(2.0208333,0,0,1.7500002,-49.972318,-1008.4223)" />
    <text
       xml:space="preserve"
       style="font-size:30px;font-style:normal;font-weight:normal;line-height:125%;letter-spacing:0px;word-spacing:0px;fill:#000000;fill-opacity:1;stroke:none;font-family:Bitstream Vera Sans"
       x="255.88867"
       y="1088.6366"
       id="text3841-1"
       sodipodi:linespacing="125%"><tspan
         sodipodi:role="line"
         id="tspan3843-4"
         x="255.88867"
         y="1088.6366">Sources</tspan></text>
    <text
       xml:space="preserve"
       style="font-size:30px;font-style:normal;font-weight:normal;text-align:center;line-height:125%;letter-spacing:0px;word-spacing:0px;text-anchor:middle;fill:#000000;fill-opacity:1;stroke:none;font-family:Bitstream Vera Sans"
       x="597.07172"
       y="930.06512"
       id="text6141"
       sodipodi:linespacing="125%"><tspan
         sodipodi:role="line"
         id="tspan6143"
         x="597.07172"
         y="930.06512">Enlarged View</tspan><tspan
         sodipodi:role="line"
         x="597.07172"
         y="967.56512"
         id="tspan6145">of sources</tspan></text>
    <path
       style="fill:none;stroke:#000000;stroke-width:1;stroke-linecap:butt;stroke-linejoin:miter;stroke-miterlimit:4;stroke-opacity:1;stroke-dasharray:none;marker-start:url(#Arrow1Lstart);marker-mid:none;marker-end:url(#Arrow1Lend)"
       d="m 597.94434,863.21179 50,0"
       id="path5312-7"
       inkscape:connector-curvature="0" />
    <text
       xml:space="preserve"
       style="font-size:30px;font-style:normal;font-weight:normal;line-height:125%;letter-spacing:0px;word-spacing:0px;fill:#000000;fill-opacity:1;stroke:none;font-family:Bitstream Vera Sans"
       x="647.94434"
       y="873.21179"
       id="text5075-2-0-7"
       sodipodi:linespacing="125%"><tspan
         sodipodi:role="line"
         id="tspan5077-7-0-3"
         x="647.94434"
         y="873.21179"
         style="font-size:24px">1.25位</tspan></text>
    <text
       xml:space="preserve"
       style="font-size:30px;font-style:normal;font-weight:normal;line-height:125%;letter-spacing:0px;word-spacing:0px;fill:#000000;fill-opacity:1;stroke:none;font-family:Bitstream Vera Sans"
       x="477.94434"
       y="813.21179"
       id="text5075-2-0"
       sodipodi:linespacing="125%"><tspan
         sodipodi:role="line"
         id="tspan5077-7-0"
         x="477.94434"
         y="813.21179"
         style="font-size:24px">1.25位</tspan></text>
    <path
       style="fill:none;stroke:#000000;stroke-width:3;stroke-linecap:butt;stroke-linejoin:miter;stroke-miterlimit:4;stroke-opacity:1;stroke-dasharray:3, 3;stroke-dashoffset:0"
       d="m 640,143.64258 0,100"
       id="path3874"
       inkscape:connector-curvature="0"
       transform="translate(-42.055664,619.56921)" />
    <path
       style="fill:none;stroke:#000000;stroke-width:3;stroke-linecap:butt;stroke-linejoin:miter;stroke-miterlimit:4;stroke-opacity:1;stroke-dasharray:3,3;stroke-dashoffset:0"
       d="m 477.94434,833.21179 170,0"
       id="path3876"
       inkscape:connector-curvature="0" />
  </g>
</svg>
